<?xml version="1.0"?>
<svg xmlns="http://www.w3.org/2000/svg" width="512" height="512" viewBox="0 0 128 128"><g><path d="M121.25,23.47H58.016V16.418a7.759,7.759,0,0,0-7.75-7.75h-22.5a7.759,7.759,0,0,0-7.75,7.75V23.47H6.75A6.758,6.758,0,0,0,0,30.22V98.609a6.758,6.758,0,0,0,6.75,6.75H20.016v6.223a7.759,7.759,0,0,0,7.75,7.75h22.5a7.759,7.759,0,0,0,7.75-7.75v-6.223H121.25a6.758,6.758,0,0,0,6.75-6.75V30.22A6.758,6.758,0,0,0,121.25,23.47ZM6.75,101.859a3.254,3.254,0,0,1-3.25-3.25V30.22a3.254,3.254,0,0,1,3.25-3.25H20.016v74.889Zm47.766,9.723a4.255,4.255,0,0,1-4.25,4.25h-22.5a4.255,4.255,0,0,1-4.25-4.25V16.418a4.255,4.255,0,0,1,4.25-4.25h22.5a4.255,4.255,0,0,1,4.25,4.25v95.164ZM124.5,98.609a3.254,3.254,0,0,1-3.25,3.25H58.016V26.97H121.25a3.254,3.254,0,0,1,3.25,3.25Z"/><path d="M116.25,54.482H66.266a1.75,1.75,0,0,0-1.75,1.75V93.609a1.749,1.749,0,0,0,1.75,1.75H116.25a1.749,1.749,0,0,0,1.75-1.75V56.232A1.75,1.75,0,0,0,116.25,54.482ZM84.289,78.923v-8H98.227v8Zm13.938,3.5v9.436H84.289V82.423Zm-30.211-11.5H80.789v8H68.016Zm16.273-3.5V57.982H98.227v9.436Zm17.438,3.5H114.5v8H101.727Zm12.773-3.5H101.727V57.982H114.5ZM80.789,57.982v9.436H68.016V57.982ZM68.016,82.423H80.789v9.436H68.016Zm33.711,9.436V82.423H114.5v9.436Z"/><path d="M116.25,33.471H66.266a1.749,1.749,0,0,0-1.75,1.75v11a1.75,1.75,0,0,0,1.75,1.75H116.25a1.75,1.75,0,0,0,1.75-1.75v-11A1.749,1.749,0,0,0,116.25,33.471Zm-1.75,11H68.016v-7.5H114.5Z"/></g></svg>
